<svg xmlns="http://www.w3.org/2000/svg" viewBox="0 0 2795.98 2235.91"><defs><style>.cls-1{fill:#f70000;}.cls-2{fill:#fff;}</style></defs><g id="Layer_2" data-name="Layer 2"><g id="Layer_1-2" data-name="Layer 1"><path class="cls-1" d="M1532.11,980.14l-239.47,105.58v-76.87a99.39,99.39,0,0,0-99.39-99.39h-536a99.38,99.38,0,0,0-99.38,99.39v427.87a99.37,99.37,0,0,0,99.38,99.38h536a99.38,99.38,0,0,0,99.39-99.38v-76.88l239.47,105.58Z"/><path class="cls-1" d="M1013.14,2235.91C454.49,2235.91,0,1781.43,0,1222.79S454.49,209.65,1013.14,209.65,2026.26,664.14,2026.26,1222.79,1571.78,2235.91,1013.14,2235.91Zm0-1948.13c-515.56,0-935,419.44-935,935s419.45,935,935,935,935-419.43,935-935S1528.7,287.78,1013.14,287.78Z"/><rect class="cls-1" x="1365.51" width="1430.47" height="751.31" rx="5.72"/><path class="cls-2" d="M1853.72,596.14H1619.1V181.8h74.8V528.34h159.82Z"/><path class="cls-2" d="M1979,596.67h-74.81V182.34H1979Z"/><path class="cls-2" d="M2322.3,182.34,2210.91,596.67h-77.49L2021.5,182.34h75.87l36.05,126.45,38.74,193.72,38.21-194.8,36.05-125.37Z"/><path class="cls-2" d="M2603.1,181.8v64.57H2439V352.91h139.91v66.73H2439V528.87h171.66v67.8H2364.72V181.8Z"/></g></g></svg>